# Blender v2.72 (sub 0) OBJ File: 'Rock1.blend'
# www.blender.org
mtllib Rock1.mtl
o Plane
v 6.083834 0.000000 6.083834
v -6.083834 0.000000 6.083834
v 6.083834 0.000000 -6.083834
v -6.083834 0.000000 -6.083834
vn 0.000000 1.000000 0.000000
usemtl Material.001
s off
f 1//1 3//1 4//1
f 2//1 1//1 4//1
o Cube
v 0.896930 -0.116701 -1.078061
v 0.736314 -0.076033 1.066762
v -1.052088 -0.064600 0.954513
v -0.692441 -0.114299 -0.835835
v 1.303753 1.083753 -1.023542
v 0.444005 1.032712 1.513821
v -1.019775 1.174950 1.105961
v -0.681862 1.180458 -1.481573
v 1.045407 -0.157597 -0.147996
v 0.067265 -0.072713 -0.783522
v 1.200361 0.538245 -1.221685
v -0.154563 -0.114500 1.228987
v 1.155268 0.478039 1.381585
v -1.094633 -0.254018 -0.118459
v -1.648060 0.452009 0.853586
v -1.185727 0.481559 -1.133555
v 0.975431 1.246558 0.047895
v 0.105258 1.126820 -1.585067
v -0.344848 1.152380 1.730000
v -1.177093 1.303243 0.009798
v -0.015789 -0.312706 -0.060242
v 0.046107 1.351565 -0.253730
v 1.175182 0.692469 0.169032
v 0.260077 0.452640 1.365451
v -1.648881 0.429819 -0.064031
v -0.199824 0.336820 -1.536424
v 1.008866 -0.126459 0.470257
v -0.321458 -0.060305 -0.702046
v 1.385825 0.807576 -1.181814
v -0.537873 -0.057997 1.154378
v 0.936321 0.677546 1.426494
v -0.862364 -0.219203 -0.537108
v -1.281588 0.883991 1.218077
v -0.974527 0.926074 -1.431442
v 0.808457 1.346412 0.902078
v -0.174992 1.147173 -1.801163
v -0.610285 1.147948 1.327881
v -1.356023 1.245036 -0.716849
v 1.042022 -0.190494 -0.637866
v 0.468949 -0.142859 -1.026806
v 1.081272 0.175115 -1.287556
v 0.243586 -0.141476 1.191072
v 1.014587 0.183491 1.312948
v -1.155731 -0.217847 0.459469
v -1.571341 0.110279 0.770709
v -1.063276 0.074521 -1.015607
v 1.231954 1.216866 -0.594471
v 0.770454 1.122192 -1.299703
v -0.065279 1.102928 1.796044
v -1.176430 1.281231 0.646380
v -0.476225 -0.274043 -0.037390
v 0.480423 -0.312115 -0.111060
v 0.172793 -0.188473 -0.532460
v -0.106274 -0.274351 0.595963
v -0.198010 1.360380 0.630818
v 0.062998 1.276304 -0.994314
v 0.611501 1.352344 -0.290780
v -0.603343 1.343584 -0.011276
v 1.267461 0.630730 1.008356
v 1.267107 0.600208 -0.689727
v 1.268899 0.241091 -0.063884
v 1.050912 1.068502 0.197512
v -1.043570 0.402928 1.289593
v 0.667029 0.439932 1.448684
v -0.135120 0.156677 1.505020
v -0.066870 0.652060 1.602193
v -1.759897 0.319614 -0.724614
v -1.646483 0.462612 0.459024
v -1.548443 -0.153801 -0.255587
v -1.483055 1.068517 0.045330
v -0.775458 0.497559 -1.402503
v 0.556317 0.449266 -1.496503
v 0.153226 0.839249 -1.832230
v -0.180515 0.060946 -1.233899
v -0.630920 -0.226328 0.592326
v -0.677921 1.329703 0.698183
v 1.115930 1.067893 0.980967
v -0.944509 0.743625 1.392342
v -1.719440 0.916506 -0.699776
v -0.751048 0.149059 -1.123006
v -0.359688 -0.219676 -0.596748
v 0.548058 -0.284113 -0.657622
v 0.383454 -0.298149 0.533170
v 0.342781 1.370886 0.863692
v 0.801564 1.333314 -0.716665
v -0.544178 1.290048 -0.889409
v 1.347667 0.189763 0.746821
v 1.323792 0.127379 -0.856060
v 1.423543 0.897206 -0.707035
v -0.706694 0.190636 1.346937
v 0.494274 0.153436 1.399456
v 0.524189 0.691410 1.410453
v -1.346437 -0.078697 -0.808084
v -1.550380 0.033513 0.487642
v -1.434319 1.017100 0.746778
v -0.263198 0.916780 -1.716774
v 0.802037 0.850318 -1.528586
v 0.512712 0.114694 -1.198383
vt 0.058285 0.569867
vt 0.082613 0.506661
vt 0.152906 0.498683
vt 0.206316 0.378186
vt 0.155630 0.402329
vt 0.099783 0.387655
vt 0.854473 0.349296
vt 0.794976 0.248970
vt 0.870663 0.174892
vt 0.944083 0.694636
vt 0.905653 0.682602
vt 0.916733 0.604517
vt 0.336809 0.082005
vt 0.369246 0.000842
vt 0.489191 0.000000
vt 0.512673 0.310590
vt 0.481603 0.323059
vt 0.447322 0.276247
vt 0.276846 0.583529
vt 0.215363 0.578539
vt 0.223692 0.502410
vt 0.288525 0.695621
vt 0.226456 0.694739
vt 0.220811 0.635843
vt 0.149628 0.688747
vt 0.060049 0.668982
vt 0.053708 0.620010
vt 0.115533 0.299946
vt 0.042023 0.402498
vt 0.011393 0.383384
vt 0.133867 0.094672
vt 0.226136 0.127633
vt 0.165692 0.199396
vt 0.273683 0.187557
vt 0.335575 0.267841
vt 0.258354 0.321530
vt 0.422948 0.654063
vt 0.520455 0.684734
vt 0.477461 0.726331
vt 0.422729 0.459207
vt 0.529375 0.479105
vt 0.539575 0.580737
vt 0.744126 0.814485
vt 0.672331 0.787452
vt 0.683844 0.711964
vt 0.016271 0.536299
vt 0.006598 0.482318
vt 0.054401 0.402498
vt 0.855242 0.125920
vt 0.818683 0.137473
vt 0.786060 0.070157
vt 0.829103 0.182611
vt 0.720806 0.251159
vt 0.693981 0.268226
vt 0.348488 0.225548
vt 0.431026 0.176751
vt 0.821728 0.494375
vt 0.758928 0.488146
vt 0.747834 0.361119
vt 0.853441 0.628842
vt 0.844101 0.700647
vt 0.766741 0.707183
vt 0.554998 0.057463
vt 0.491069 0.166304
vt 0.661203 0.071636
vt 0.642437 0.169965
vt 0.565426 0.199969
vt 0.619708 0.321108
vt 0.560004 0.310321
vt 0.556413 0.271543
vt 0.137636 0.563411
vt 0.140662 0.629249
vt 0.155028 0.344089
vt 0.206193 0.274302
vt 0.896175 0.282885
vt 0.907061 0.133559
vt 0.622627 0.581780
vt 0.617335 0.678426
vt 0.662917 0.562066
vt 0.672331 0.661064
vt 0.949240 0.587705
vt 0.869574 0.490922
vt 0.791582 0.866218
vt 0.744126 0.821215
vt 0.752056 0.707183
vt 0.999879 0.706758
vt 0.460672 0.063535
vt 0.766456 0.640000
vt 0.672331 0.596657
vt 0.677773 0.459778
vt 0.674914 0.687648
vt 0.485748 0.254952
vt 0.336809 0.833560
vt 0.336920 0.785916
vt 0.384519 0.726331
vt 0.506205 0.350977
vt 0.448079 0.354288
vt 0.559475 0.342029
vt 0.266533 0.646047
vt 0.609960 0.361119
vt 0.278588 0.749240
vt 0.320949 0.673747
vt 0.218381 0.752553
vt 0.143231 0.752483
vt 0.069266 0.722735
vt 0.808347 0.361119
vt 0.116225 0.149680
vt 0.046020 0.277128
vt 0.000000 0.241327
vt 0.056221 0.145884
vt 0.187902 0.035191
vt 0.085645 0.065345
vt 0.273048 0.064123
vt 0.316518 0.068429
vt 0.336809 0.140426
vt 0.340137 0.610197
vt 0.404599 0.713241
vt 0.339988 0.536299
vt 0.439840 0.553878
vt 0.429528 0.400325
vt 0.336833 0.476818
vt 0.517650 0.412671
vt 0.604166 0.482239
vt 0.586459 0.423461
vt 0.646477 0.441109
vt 0.670954 0.491413
vt 0.090851 0.431859
vt 0.000000 0.608449
vt 0.694133 0.143704
vt 0.012308 0.682984
vt 0.019832 0.742597
vt 0.857058 0.070133
vt 0.758736 0.168010
vt 0.408067 0.318081
vt 0.232244 0.440506
vt 0.291247 0.454530
vt 0.270084 0.523882
vt 0.685316 0.388716
vt 0.130148 0.436240
vt 0.834672 0.401576
vt 0.563922 0.000091
vt 0.582099 0.007382
vt 0.608937 0.072162
vt 0.207942 0.000000
vt 0.293309 0.025246
vt 0.579472 0.365264
vt 0.477201 0.361119
vt 0.628288 0.255903
vt 0.693981 0.150197
vt 0.693822 0.237100
vt 0.668575 0.311882
vt 0.731678 0.707183
vt 0.934356 0.187628
vt 0.939564 0.506329
vt 0.791426 0.711743
vt 1.000000 0.606532
vt 0.387737 0.801509
vt 0.324683 0.722893
vt 0.116277 0.014773
vt 0.336809 0.674909
vt 0.353162 0.419686
vt 0.736508 0.092307
vt 0.913859 0.076969
vt 0.867108 0.417288
vt 0.639569 0.392860
vn -0.233500 -0.819800 0.522800
vn -0.341800 -0.625700 0.701200
vn -0.276700 -0.937700 0.209800
vn -0.424000 0.890700 0.163900
vn -0.339200 0.818400 0.463900
vn -0.460600 0.772900 0.436500
vn 0.378500 0.884900 0.271500
vn 0.471200 0.579600 0.664800
vn 0.320600 0.158900 0.933800
vn -0.646800 0.288800 0.705800
vn -0.900700 0.371900 -0.224300
vn -0.458400 0.862700 -0.213600
vn -0.301000 0.819900 -0.486800
vn 0.010700 -0.806900 -0.590500
vn 0.230000 -0.694400 -0.681800
vn -0.231200 -0.595000 -0.769700
vn 0.016800 -0.846500 -0.532100
vn -0.040300 -0.998600 -0.032900
vn -0.122100 -0.991600 -0.041200
vn -0.012200 -0.971900 -0.235000
vn 0.122300 -0.992400 0.015000
vn -0.071000 -0.993000 -0.094000
vn 0.122200 -0.981400 0.148100
vn 0.080500 -0.849300 0.521600
vn -0.086200 -0.849400 0.520600
vn -0.046700 0.996400 0.070500
vn -0.217700 0.494400 0.841500
vn -0.086400 0.146500 0.985400
vn 0.178300 0.970700 -0.161300
vn 0.007300 0.987200 -0.159100
vn -0.027300 0.998100 -0.054800
vn -0.044300 0.991500 -0.121900
vn -0.344700 0.938400 0.022500
vn 0.921600 -0.360400 0.143800
vn 0.959300 0.222600 0.173800
vn 0.648500 -0.032100 0.760500
vn 0.919900 -0.291200 -0.262500
vn 0.985400 -0.162400 0.050100
vn 0.963400 0.267200 -0.018400
vn 0.993300 0.035300 0.109500
vn 0.638100 0.769000 0.038600
vn 0.596700 0.799100 0.073100
vn -0.326300 -0.473800 0.818000
vn -0.434100 -0.329200 0.838600
vn -0.913600 0.089800 0.396600
vn 0.126700 -0.032600 0.991400
vn -0.189100 -0.186900 0.964000
vn -0.073600 -0.184200 0.980100
vn 0.114700 -0.242200 0.963400
vn -0.899000 -0.340400 -0.275600
vn -0.479500 -0.331900 -0.812300
vn -0.993700 0.107100 0.034300
vn -0.999200 0.000100 0.039900
vn -0.739400 -0.654700 -0.156500
vn -0.824700 0.505000 0.254600
vn -0.218100 -0.181700 -0.958800
vn -0.432200 -0.296800 -0.851500
vn 0.426900 0.149400 -0.891800
vn 0.225900 -0.430300 -0.873900
vn -0.117000 -0.587100 -0.801000
vn -0.076900 -0.842600 -0.532900
vn -0.211900 -0.938300 -0.273300
vn -0.131600 -0.849400 -0.511000
vn -0.085500 -0.979800 0.180600
vn -0.055900 -0.987800 0.145500
vn -0.093600 0.986700 0.133100
vn -0.043400 0.998800 -0.021100
vn 0.752400 0.571000 0.328300
vn 0.940500 0.338300 0.030400
vn -0.364600 -0.020200 0.930900
vn -0.006300 -0.522900 0.852400
vn -0.549100 0.086400 -0.831300
vn -0.818900 0.564900 0.101300
vn -0.109100 -0.775000 -0.622500
vn -0.043500 -0.970400 -0.237300
vn -0.216400 -0.916000 -0.337700
vn 0.483000 -0.867200 -0.120600
vn 0.586200 -0.808400 0.052800
vn 0.453300 -0.878500 0.150900
vn 0.302100 -0.888100 0.346500
vn -0.011700 0.990200 0.139300
vn 0.104700 0.994500 -0.006000
vn 0.287400 0.799500 -0.527400
vn 0.226500 0.797300 -0.559400
vn 0.166900 0.398200 -0.901900
vn 0.449900 -0.591100 0.669400
vn 0.991200 -0.131900 -0.006400
vn 0.421700 -0.247600 -0.872200
vn 0.719900 -0.329000 -0.611100
vn 0.873300 -0.027000 -0.486400
vn 0.695900 0.658800 -0.285700
vn -0.735800 -0.552500 0.391500
vn 0.149300 -0.476900 0.866200
vn -0.467200 -0.714600 -0.520600
vn -0.791300 -0.591900 0.152900
vn 0.150800 0.022200 -0.988300
vn 0.072000 -0.564800 -0.822100
vn 0.246700 -0.812300 -0.528500
usemtl Material
s 1
f 34/1/2 7/2/3 48/3/4
f 54/4/5 11/5/6 41/6/7
f 39/7/8 10/8/9 35/9/10
f 41/10/7 11/11/6 37/12/11
f 83/13/12 42/14/13 12/15/14
f 32/16/15 8/17/16 50/18/17
f 85/19/18 55/20/19 18/21/20
f 86/22/21 56/23/22 25/24/23
f 87/25/24 46/26/25 16/27/26
f 59/28/27 23/29/28 53/30/29
f 89/31/30 60/32/31 26/33/32
f 90/34/33 42/35/13 24/36/34
f 91/37/35 63/38/36 17/39/37
f 92/40/38 64/41/39 27/42/40
f 93/43/41 51/44/42 21/45/43
f 94/46/44 67/47/45 19/48/46
f 68/49/47 28/50/48 69/51/49
f 96/52/50 53/53/29 23/54/28
f 71/55/51 20/56/52 50/18/17
f 72/57/53 29/58/54 73/59/55
f 99/60/56 54/61/5 24/62/34
f 100/63/57 75/64/58 20/56/52
f 101/65/59 76/66/60 30/67/61
f 44/68/62 14/69/63 78/70/64
f 79/71/65 48/3/4 18/21/20
f 25/24/23 58/72/66 79/71/65
f 16/27/26 34/1/2 79/71/65
f 80/73/67 41/6/7 23/29/28
f 26/33/32 62/74/68 80/73/67
f 62/74/68 24/36/34 54/4/5
f 81/75/69 35/9/10 17/76/37
f 66/77/70 81/78/69 63/38/36
f 21/79/43 39/80/8 81/78/69
f 82/81/71 37/12/11 19/82/46
f 28/83/48 70/84/72 82/85/71
f 23/86/28 41/10/7 82/81/71
f 71/55/51 83/13/12 38/87/73
f 74/88/74 83/89/12 71/90/51
f 24/62/34 42/91/13 83/89/12
f 75/64/58 84/92/75 50/18/17
f 78/70/64 84/92/75 75/64/58
f 14/93/63 32/94/15 84/95/75
f 32/16/15 85/96/18 36/97/76
f 57/98/77 85/96/18 32/16/15
f 57/99/77 25/24/23 55/20/19
f 44/68/62 86/100/21 57/98/77
f 43/101/78 86/22/21 44/102/62
f 43/101/78 13/103/79 56/23/22
f 56/23/22 87/25/24 58/72/66
f 13/103/79 31/104/80 87/25/24
f 31/104/80 6/105/81 46/26/25
f 39/7/8 88/106/82 53/53/29
f 61/107/83 88/108/82 39/109/8
f 61/107/83 26/33/32 59/28/27
f 89/31/30 61/107/83 21/110/43
f 52/111/84 89/31/30 51/112/42
f 22/113/85 60/32/31 89/31/30
f 60/32/31 90/34/33 62/74/68
f 40/114/86 90/34/33 60/32/31
f 40/114/86 12/115/14 42/35/13
f 31/116/80 91/37/35 47/117/87
f 13/118/79 65/119/88 91/37/35
f 65/119/88 27/42/40 63/38/36
f 92/40/38 65/119/88 13/118/79
f 45/120/89 92/40/38 43/121/78
f 45/120/89 15/122/90 64/41/39
f 64/41/39 93/123/41 66/77/70
f 15/122/90 33/124/91 93/123/41
f 33/124/91 9/125/92 51/126/42
f 34/1/2 94/46/44 49/127/93
f 16/27/26 69/128/49 94/46/44
f 69/51/49 28/50/48 67/129/45
f 95/130/94 69/128/49 16/27/26
f 47/131/87 95/130/94 46/26/25
f 17/76/37 68/49/47 95/132/94
f 68/49/47 96/52/50 70/133/72
f 17/76/37 35/9/10 96/52/50
f 35/9/10 10/8/9 53/53/29
f 97/134/95 50/18/17 8/17/16
f 73/135/55 97/136/95 36/137/76
f 29/58/54 71/90/51 97/138/95
f 48/3/4 98/139/96 73/135/55
f 7/2/3 49/127/93 98/139/96
f 19/82/46 72/57/53 98/140/96
f 99/60/56 74/88/74 29/58/54
f 37/12/11 99/60/56 72/57/53
f 37/12/11 11/11/6 54/61/5
f 40/141/86 100/63/57 38/87/73
f 22/142/85 77/143/97 100/63/57
f 77/143/97 30/67/61 75/64/58
f 52/111/84 101/144/59 77/145/97
f 9/125/92 33/124/91 101/146/59
f 33/124/91 15/122/90 76/147/60
f 76/66/60 102/148/98 78/70/64
f 15/149/90 45/150/89 102/148/98
f 45/150/89 5/151/99 44/68/62
f 79/71/65 34/1/2 48/3/4
f 80/73/67 54/4/5 41/6/7
f 81/75/69 39/7/8 35/9/10
f 82/81/71 41/10/7 37/12/11
f 38/87/73 83/13/12 12/15/14
f 84/92/75 32/16/15 50/18/17
f 36/137/76 85/19/18 18/21/20
f 57/99/77 86/22/21 25/24/23
f 58/72/66 87/25/24 16/27/26
f 88/108/82 59/28/27 53/30/29
f 61/107/83 89/31/30 26/33/32
f 62/74/68 90/34/33 24/36/34
f 47/117/87 91/37/35 17/39/37
f 65/119/88 92/40/38 27/42/40
f 66/152/70 93/43/41 21/45/43
f 49/127/93 94/46/44 19/48/46
f 95/132/94 68/49/47 69/51/49
f 70/133/72 96/52/50 23/54/28
f 97/134/95 71/55/51 50/18/17
f 98/140/96 72/57/53 73/59/55
f 74/88/74 99/60/56 24/62/34
f 38/87/73 100/63/57 20/56/52
f 77/143/97 101/65/59 30/67/61
f 102/148/98 44/68/62 78/70/64
f 55/20/19 79/71/65 18/21/20
f 55/20/19 25/24/23 79/71/65
f 58/72/66 16/27/26 79/71/65
f 59/28/27 80/73/67 23/29/28
f 59/28/27 26/33/32 80/73/67
f 80/73/67 62/74/68 54/4/5
f 63/153/36 81/75/69 17/76/37
f 27/42/40 66/77/70 63/38/36
f 66/77/70 21/79/43 81/78/69
f 67/154/45 82/81/71 19/82/46
f 67/155/45 28/83/48 82/85/71
f 70/156/72 23/86/28 82/81/71
f 20/56/52 71/55/51 38/87/73
f 29/58/54 74/88/74 71/90/51
f 74/88/74 24/62/34 83/89/12
f 20/56/52 75/64/58 50/18/17
f 30/67/61 78/70/64 75/64/58
f 78/157/64 14/93/63 84/95/75
f 8/17/16 32/16/15 36/97/76
f 14/69/63 57/98/77 32/16/15
f 85/19/18 57/99/77 55/20/19
f 14/69/63 44/68/62 57/98/77
f 5/158/99 43/101/78 44/102/62
f 86/22/21 43/101/78 56/23/22
f 25/24/23 56/23/22 58/72/66
f 56/23/22 13/103/79 87/25/24
f 87/25/24 31/104/80 46/26/25
f 10/8/9 39/7/8 53/53/29
f 21/110/43 61/107/83 39/109/8
f 88/108/82 61/107/83 59/28/27
f 51/112/42 89/31/30 21/110/43
f 9/159/92 52/111/84 51/112/42
f 52/111/84 22/113/85 89/31/30
f 26/33/32 60/32/31 62/74/68
f 22/113/85 40/114/86 60/32/31
f 90/34/33 40/114/86 42/35/13
f 6/160/81 31/116/80 47/117/87
f 31/116/80 13/118/79 91/37/35
f 91/37/35 65/119/88 63/38/36
f 43/121/78 92/40/38 13/118/79
f 5/161/99 45/120/89 43/121/78
f 92/40/38 45/120/89 64/41/39
f 27/42/40 64/41/39 66/77/70
f 64/41/39 15/122/90 93/123/41
f 93/123/41 33/124/91 51/126/42
f 7/2/3 34/1/2 49/127/93
f 34/1/2 16/27/26 94/46/44
f 94/162/44 69/51/49 67/129/45
f 46/26/25 95/130/94 16/27/26
f 6/105/81 47/131/87 46/26/25
f 47/163/87 17/76/37 95/132/94
f 28/50/48 68/49/47 70/133/72
f 68/49/47 17/76/37 96/52/50
f 96/52/50 35/9/10 53/53/29
f 36/97/76 97/134/95 8/17/16
f 18/21/20 73/135/55 36/137/76
f 73/59/55 29/58/54 97/138/95
f 18/21/20 48/3/4 73/135/55
f 48/3/4 7/2/3 98/139/96
f 49/164/93 19/82/46 98/140/96
f 72/57/53 99/60/56 29/58/54
f 19/82/46 37/12/11 72/57/53
f 99/60/56 37/12/11 54/61/5
f 12/15/14 40/141/86 38/87/73
f 40/141/86 22/142/85 100/63/57
f 100/63/57 77/143/97 75/64/58
f 22/113/85 52/111/84 77/145/97
f 52/165/84 9/125/92 101/146/59
f 101/146/59 33/124/91 76/147/60
f 30/67/61 76/66/60 78/70/64
f 76/66/60 15/149/90 102/148/98
f 102/148/98 45/150/89 44/68/62
